<?xml version="1.0" standalone="no"?>
<!DOCTYPE svg PUBLIC "-//W3C//DTD SVG 20010904//EN"
 "http://www.w3.org/TR/2001/REC-SVG-20010904/DTD/svg10.dtd">
<svg version="1.0" xmlns="http://www.w3.org/2000/svg"
 width="966.000000pt" height="966.000000pt" viewBox="0 0 966.000000 966.000000"
 preserveAspectRatio="xMidYMid meet">

<g transform="translate(0.000000,966.000000) scale(0.100000,-0.100000)"
fill="#000000" stroke="none">
<path d="M4495 9549 c-940 -48 -1869 -391 -2624 -969 -670 -513 -1187 -1186
-1512 -1967 -161 -386 -267 -794 -331 -1273 -20 -156 -23 -214 -23 -540 0
-323 3 -385 23 -540 61 -469 150 -822 305 -1214 547 -1386 1718 -2439 3157
-2839 224 -63 480 -113 735 -144 188 -22 842 -26 1020 -5 554 65 1002 186
1465 394 261 118 431 212 690 384 272 180 470 343 715 588 295 295 497 549
696 871 487 790 728 1680 706 2610 -16 676 -159 1296 -438 1899 -229 493 -539
937 -932 1334 -394 398 -791 685 -1282 927 -598 295 -1199 451 -1874 485 -223
11 -260 11 -496 -1z m780 -153 c916 -108 1748 -465 2460 -1058 137 -114 376
-348 507 -497 546 -622 922 -1396 1067 -2201 199 -1099 9 -2202 -542 -3155
-659 -1138 -1766 -1944 -3044 -2215 -521 -110 -1097 -130 -1623 -54 -850 122
-1644 479 -2325 1046 -128 106 -417 393 -527 523 -474 560 -801 1191 -973
1875 -141 559 -178 1160 -105 1715 72 555 226 1049 479 1540 161 312 348 592
579 870 102 121 433 451 557 554 759 628 1617 981 2605 1071 153 14 724 5 885
-14z"/>
<path d="M4621 8868 c-96 -5 -176 -10 -179 -13 -9 -8 10 -115 19 -110 5 4 9
15 9 26 0 47 92 84 104 42 8 -31 11 -317 3 -330 -5 -7 -17 -13 -28 -13 -10 0
-19 -5 -19 -11 0 -9 23 -10 83 -6 45 4 94 7 110 7 15 0 27 4 27 9 0 5 -12 11
-27 13 -27 3 -28 5 -34 78 -4 41 -7 121 -8 178 l-1 102 30 0 c33 0 80 -38 80
-65 0 -8 5 -15 10 -15 11 0 14 107 3 112 -5 2 -86 0 -182 -4z"/>
<path d="M4870 8874 c0 -3 11 -15 25 -27 13 -12 45 -69 70 -126 35 -80 45
-116 45 -156 0 -72 -6 -85 -41 -85 -16 0 -29 -4 -29 -9 0 -10 85 -21 170 -21
l65 1 -34 15 -34 14 6 71 c5 64 11 77 58 147 81 118 90 130 113 137 17 6 12 9
-24 15 -63 12 -90 12 -90 0 0 -5 7 -10 15 -10 33 0 26 -32 -21 -101 -27 -39
-52 -73 -56 -75 -9 -6 -78 142 -78 167 0 13 7 19 22 19 13 0 18 4 13 9 -11 9
-195 24 -195 15z"/>
<path d="M4238 8837 c-66 -9 -94 -27 -43 -27 14 0 28 -6 30 -12 2 -7 14 -85
25 -172 20 -162 18 -186 -16 -186 -8 0 -14 -5 -14 -11 0 -8 13 -10 38 -6 20 3
62 9 92 12 74 9 93 17 55 24 l-30 6 -16 115 c-10 63 -20 143 -24 177 -6 60 -6
62 22 77 l28 15 -40 -1 c-22 0 -70 -5 -107 -11z"/>
<path d="M4060 8806 c0 -12 -14 -14 -63 -13 -96 3 -153 -45 -151 -126 2 -58
49 -101 138 -127 87 -25 116 -43 116 -75 0 -73 -106 -88 -166 -23 -17 19 -33
41 -36 49 -3 8 -9 11 -13 7 -7 -7 19 -135 30 -146 4 -4 11 1 16 11 9 15 19 16
59 11 71 -9 131 22 161 82 21 44 21 46 4 90 -19 51 -46 68 -161 103 -70 21
-84 32 -84 72 0 25 54 53 88 44 15 -4 44 -24 64 -46 21 -22 38 -34 38 -26 0
32 -23 127 -31 127 -5 0 -9 -6 -9 -14z"/>
<path d="M5490 8802 c0 -6 9 -14 20 -17 27 -8 26 -33 -6 -191 -33 -164 -37
-174 -69 -174 -52 0 -22 -17 63 -34 48 -9 95 -20 105 -22 9 -3 17 -1 17 5 0 6
-6 11 -14 11 -36 0 -36 25 -6 176 16 82 32 159 35 172 4 17 13 22 35 22 58 0
29 16 -60 33 -50 10 -97 20 -105 23 -8 4 -15 1 -15 -4z"/>
<path d="M5750 8756 c0 -3 9 -15 20 -26 11 -11 20 -27 20 -36 0 -23 -81 -287
-92 -301 -6 -7 -21 -13 -34 -13 -44 0 -25 -18 39 -37 61 -19 102 -19 59 0 -12
6 -24 17 -27 26 -2 9 13 75 34 146 l39 130 19 -45 c11 -25 47 -114 79 -197 32
-84 63 -151 68 -150 5 2 22 48 38 103 83 282 76 264 108 264 17 0 30 4 30 9 0
9 -121 51 -129 44 -3 -2 6 -13 18 -24 13 -12 21 -29 18 -38 -2 -9 -15 -53 -27
-99 -13 -45 -25 -81 -26 -79 -2 1 -28 66 -57 142 l-55 140 -53 18 c-87 28 -89
29 -89 23z"/>
<path d="M3615 8685 c-5 -2 -65 -20 -132 -41 -118 -36 -150 -54 -99 -54 14 0
28 -5 32 -11 3 -6 28 -81 56 -167 l49 -156 -23 -17 c-38 -29 -17 -28 77 3 91
30 136 55 83 46 -16 -3 -32 0 -38 7 -9 11 -49 121 -50 138 0 17 26 4 98 -51
104 -78 96 -76 155 -56 72 23 73 24 35 43 -19 9 -64 38 -100 65 l-66 49 23 23
c32 32 40 76 21 116 -9 18 -24 38 -34 44 -20 13 -72 24 -87 19z m-5 -55 c19
-10 40 -59 40 -92 0 -22 -41 -63 -70 -71 -17 -4 -23 6 -45 74 -14 44 -25 82
-25 84 0 14 76 18 100 5z"/>
<path d="M3129 8499 c-68 -34 -134 -65 -146 -70 -30 -11 -30 -27 0 -22 13 3
28 -1 33 -9 16 -20 134 -285 134 -299 0 -7 -7 -21 -17 -31 -9 -10 -14 -20 -12
-22 2 -2 74 31 160 73 l156 76 -19 64 c-21 68 -31 72 -35 13 -1 -20 -11 -48
-21 -62 -22 -30 -90 -70 -107 -63 -7 2 -26 35 -43 73 l-30 68 26 5 c20 4 34
-3 59 -28 18 -18 34 -30 37 -28 4 4 -76 189 -88 200 -3 3 -6 -16 -6 -44 0 -36
-5 -55 -19 -67 -18 -17 -20 -15 -44 38 -41 90 -41 90 -2 109 53 25 101 22 127
-8 33 -38 39 -20 14 36 -13 27 -26 52 -28 54 -2 3 -60 -23 -129 -56z"/>
<path d="M6340 8500 c-27 -58 -22 -71 13 -36 29 29 40 31 85 15 l30 -10 -76
-160 c-74 -156 -77 -161 -104 -157 -51 8 -29 -12 58 -52 95 -44 118 -50 83
-21 l-23 18 23 54 c13 30 48 102 77 162 50 98 56 107 74 97 32 -17 53 -57 48
-90 -7 -44 8 -37 36 19 l25 49 -147 73 c-81 39 -154 76 -163 80 -13 6 -21 -3
-39 -41z"/>
<path d="M2837 8351 c-32 -20 -55 -40 -51 -44 4 -3 16 -1 27 5 16 8 23 7 34
-8 7 -10 13 -25 13 -33 1 -9 7 -60 14 -113 7 -54 11 -98 8 -98 -10 0 -202 145
-202 154 0 5 7 18 17 28 29 32 -4 19 -89 -34 -78 -50 -81 -53 -53 -56 19 -2
92 -48 198 -124 92 -66 170 -118 173 -115 3 2 -3 67 -13 143 -9 77 -17 183
-17 237 -1 53 -1 97 -1 96 0 0 -26 -17 -58 -38z"/>
<path d="M6780 8196 c-58 -39 -132 -90 -165 -114 -41 -28 -71 -42 -93 -42 -18
0 -32 -3 -32 -8 0 -10 110 -75 117 -68 3 3 -2 12 -11 21 -9 9 -16 20 -16 25 0
10 49 50 62 50 5 0 33 -15 63 -34 38 -25 52 -40 50 -53 -15 -76 -15 -75 -41
-69 -40 10 -21 -8 62 -60 76 -47 95 -52 73 -16 -10 16 -8 56 15 220 16 110 27
204 25 210 -2 5 -51 -22 -109 -62z m-6 -94 c-10 -74 -15 -78 -63 -47 -23 16
-39 30 -37 33 12 12 101 69 104 67 2 -1 0 -25 -4 -53z"/>
<path d="M2405 8059 c-72 -54 -98 -79 -81 -79 4 0 15 5 25 12 15 9 23 9 34 -1
23 -18 197 -260 197 -273 0 -6 -7 -20 -17 -30 -32 -36 8 -18 75 34 101 78 104
81 61 73 l-35 -6 -94 128 c-97 133 -114 168 -86 179 16 6 23 24 9 24 -5 0 -44
-28 -88 -61z"/>
<path d="M7074 8026 c-44 -44 -45 -91 -4 -188 45 -105 38 -148 -22 -148 -62 0
-100 78 -78 159 6 24 9 45 7 48 -6 5 -97 -112 -97 -125 0 -6 9 -8 19 -5 14 3
26 -5 43 -31 35 -52 74 -78 122 -83 75 -9 136 43 136 114 0 15 -16 66 -35 113
-19 46 -35 91 -35 100 0 45 63 54 101 14 25 -26 32 -86 16 -131 -14 -39 9 -26
47 27 41 56 44 70 17 63 -13 -3 -24 5 -39 31 -27 46 -77 76 -125 76 -31 0 -46
-7 -73 -34z"/>
<path d="M2225 7915 c-27 -24 -46 -47 -42 -51 4 -4 13 -2 19 4 25 25 30 21
128 -88 22 -25 37 -46 33 -47 -4 -2 -71 8 -148 21 l-140 24 -51 -47 c-29 -25
-52 -49 -53 -53 -1 -3 16 -4 37 -1 37 4 38 3 137 -112 55 -64 102 -121 104
-127 2 -5 -2 -21 -10 -34 -21 -40 -7 -35 50 17 51 48 64 74 24 48 -27 -17 -38
-9 -139 105 -70 79 -83 98 -64 93 68 -16 391 -60 397 -54 4 4 -12 26 -34 50
-81 84 -203 231 -203 244 0 8 5 23 10 34 17 30 -1 22 -55 -26z"/>
<path d="M7400 7862 c0 -4 5 -13 11 -19 6 -6 9 -18 7 -26 -4 -21 -225 -247
-241 -247 -7 0 -18 5 -25 12 -6 6 -15 8 -19 5 -4 -4 26 -41 67 -82 74 -75 95
-87 70 -40 -13 25 -11 28 42 82 l57 57 44 -40 c25 -21 46 -44 46 -49 1 -6 -24
-35 -54 -65 -50 -50 -57 -53 -76 -42 -47 30 -29 -3 41 -73 74 -74 95 -87 70
-40 -12 23 -9 28 58 102 39 43 93 100 121 128 47 45 53 48 72 37 47 -30 29 3
-41 73 -74 74 -95 86 -70 41 12 -23 9 -28 -36 -80 -27 -31 -51 -56 -54 -56 -3
0 -25 20 -49 44 l-44 44 21 29 c11 15 34 41 51 57 27 26 33 28 56 18 45 -21
41 -14 -35 63 -70 71 -90 85 -90 67z"/>
<path d="M4665 7833 c-763 -21 -1477 -326 -2033 -867 -762 -741 -1077 -1843
-827 -2885 178 -739 626 -1383 1260 -1808 388 -261 798 -418 1280 -490 171
-25 658 -25 830 0 846 126 1557 555 2058 1243 547 750 711 1771 431 2672 -242
778 -785 1426 -1509 1798 -464 239 -961 351 -1490 337z m540 -112 c637 -99
1228 -404 1670 -863 460 -477 741 -1058 820 -1699 62 -512 -10 -1040 -207
-1504 -365 -857 -1089 -1486 -1980 -1720 -249 -65 -485 -95 -748 -95 -464 0
-888 99 -1305 305 -570 282 -1032 733 -1321 1292 -403 779 -440 1689 -100
2506 137 331 348 645 620 925 441 453 1039 760 1665 852 195 28 190 28 481 25
212 -2 293 -7 405 -24z"/>
<path d="M4375 7264 c-236 -42 -416 -212 -481 -454 -12 -46 -19 -122 -23 -265
l-6 -200 -410 -3 c-225 -1 -413 -6 -417 -10 -4 -4 -14 -75 -22 -157 -8 -83
-24 -233 -35 -335 -23 -212 -122 -1144 -182 -1705 -22 -209 -55 -524 -74 -700
-19 -176 -35 -330 -35 -342 0 -15 12 -26 47 -41 236 -100 963 -409 1098 -467
94 -40 305 -130 470 -200 165 -70 340 -145 389 -166 49 -22 94 -39 101 -39 10
0 527 217 750 315 17 7 134 57 260 110 557 235 1074 457 1088 468 14 11 12 44
-18 322 -19 171 -95 888 -170 1595 -75 707 -138 1300 -141 1317 l-6 33 -347 2
-346 3 -3 88 -3 87 -129 0 -130 0 0 380 0 380 -572 -1 c-449 -1 -590 -4 -653
-15z m1143 -446 l2 -378 130 0 129 0 3 -87 3 -88 353 -3 c193 -1 352 -4 352
-6 0 -3 9 -89 20 -193 30 -275 81 -751 171 -1603 43 -415 93 -881 110 -1034
16 -154 28 -285 25 -291 -2 -7 -166 -81 -363 -165 -197 -84 -466 -199 -598
-255 -132 -56 -421 -179 -641 -274 -221 -94 -409 -171 -417 -171 -9 0 -51 15
-94 34 -87 38 -863 368 -1133 482 -96 41 -200 85 -230 99 -30 13 -167 72 -305
131 -137 58 -253 109 -256 112 -4 4 18 230 47 502 29 272 64 605 79 740 14
135 32 306 40 380 8 74 44 414 80 755 36 341 69 649 73 685 l7 65 420 5 420 5
6 235 c7 257 14 301 70 412 44 87 145 186 233 228 117 56 155 58 736 57 l525
-2 3 -377z"/>
<path d="M4515 6801 c-22 -10 -52 -31 -67 -47 -52 -56 -58 -86 -58 -299 l0
-196 158 3 157 3 0 275 0 275 -75 2 c-56 2 -85 -2 -115 -16z m110 -261 l0
-195 -77 -3 -78 -3 0 148 c0 125 3 154 18 183 21 39 75 72 112 68 l25 -3 0
-195z"/>
<path d="M3106 5178 c-3 -13 -23 -198 -46 -413 -22 -214 -65 -622 -95 -905
-31 -283 -58 -549 -61 -590 l-6 -75 233 -99 c129 -55 389 -165 579 -246 827
-353 1080 -460 1089 -460 6 0 30 9 53 20 24 10 106 46 183 79 162 68 960 407
1370 582 154 66 283 123 287 127 4 4 -4 113 -18 242 -28 262 -84 790 -145
1365 -22 209 -43 383 -48 388 -4 4 -160 6 -347 5 l-339 -3 -5 -145 -5 -145
-132 -3 -133 -3 0 -199 0 -200 -407 2 -408 3 -3 348 -2 348 -153 -3 -152 -3
-2 -55 c-8 -186 -56 -304 -173 -421 -60 -60 -95 -86 -161 -117 -115 -56 -215
-82 -337 -89 l-102 -6 2 214 3 214 70 6 c84 8 158 41 203 94 34 38 44 67 46
124 l1 36 -417 3 -418 2 -4 -22z m1086 -1200 c59 -33 82 -78 82 -158 0 -40 -6
-76 -16 -95 -20 -36 -81 -95 -165 -159 -67 -50 -93 -80 -93 -108 0 -16 12 -18
135 -18 l135 0 0 -30 0 -30 -176 0 -177 0 6 45 c9 63 39 117 89 159 24 19 72
59 107 88 49 40 68 64 79 96 29 87 -14 162 -93 162 -60 -1 -92 -35 -104 -110
-6 -31 -10 -35 -39 -38 -30 -3 -32 -1 -32 30 0 38 39 125 66 150 49 43 135 50
196 16z m455 -4 c42 -30 61 -79 75 -187 9 -73 9 -121 1 -196 -19 -173 -58
-223 -172 -224 -63 0 -112 20 -136 57 -42 64 -57 279 -30 422 15 80 29 104 80
136 40 26 142 21 182 -8z m403 -284 l0 -310 -35 0 -35 0 0 220 0 219 -67 3
c-65 3 -68 4 -71 29 -3 24 1 28 46 39 53 12 84 38 101 83 8 19 17 27 36 27
l25 0 0 -310z m482 108 l3 -203 28 -3 c23 -3 27 -8 27 -37 0 -29 -4 -34 -27
-37 -27 -3 -28 -5 -31 -70 -3 -68 -3 -68 -32 -68 l-30 0 0 70 0 69 -117 3
-118 3 -3 35 c-2 30 13 61 98 200 151 245 147 240 175 240 l25 0 2 -202z"/>
<path d="M4482 3907 c-28 -29 -42 -105 -42 -221 0 -114 14 -203 36 -227 23
-25 78 -34 115 -18 44 18 60 63 66 193 7 147 -9 248 -44 276 -37 29 -103 27
-131 -3z"/>
<path d="M5417 3808 c-70 -114 -117 -198 -117 -209 0 -5 38 -9 85 -9 l85 0 0
145 c0 80 -2 145 -4 145 -2 0 -24 -33 -49 -72z"/>
<path d="M1870 7569 c-39 -47 -49 -77 -15 -49 8 7 25 10 37 6 36 -9 206 -176
214 -210 8 -35 -9 -70 -48 -99 -25 -19 -30 -19 -58 -6 -33 16 -215 176 -224
198 -4 7 -1 20 5 27 6 7 9 18 7 24 -1 5 -34 -26 -72 -71 -37 -44 -65 -83 -62
-86 4 -4 12 -1 18 5 22 22 40 12 136 -74 137 -125 183 -137 258 -71 51 44 77
101 71 151 -5 36 -18 53 -116 147 -108 104 -122 121 -101 134 6 3 10 10 10 16
0 20 -19 7 -60 -42z"/>
<path d="M7760 7491 c0 -6 5 -13 10 -16 6 -3 10 -12 10 -20 0 -13 -237 -211
-267 -222 -7 -3 -23 3 -35 13 -18 16 -20 16 -15 3 8 -23 110 -158 119 -159 4
0 5 13 2 28 -5 25 1 33 49 70 29 23 57 42 62 42 9 0 0 -52 -22 -132 -15 -54
-17 -57 -41 -51 -23 5 -18 -4 39 -76 35 -45 69 -90 74 -99 59 -104 181 -302
186 -302 4 0 33 12 65 27 l59 28 -53 3 c-48 3 -58 8 -98 47 -24 25 -44 52 -44
62 0 20 115 97 130 88 19 -12 10 -59 -17 -87 -41 -43 -9 -34 81 23 95 61 91
58 84 64 -2 3 -19 0 -37 -6 -36 -13 -81 0 -81 23 0 11 110 88 125 88 2 0 14
-18 25 -40 23 -46 25 -97 5 -124 -8 -11 -15 -24 -15 -29 0 -10 76 31 91 50 8
8 -12 48 -67 140 -42 70 -83 135 -91 143 -12 13 -13 10 -7 -16 5 -29 2 -33
-48 -64 -29 -19 -95 -61 -146 -93 l-93 -60 -24 23 c-13 12 -27 36 -30 52 -7
28 40 274 55 291 10 11 211 -38 221 -54 4 -7 11 -10 15 -6 7 7 -25 57 -72 112
l-26 30 7 -32 c6 -31 5 -33 -22 -33 -45 1 -182 34 -183 45 -1 6 24 30 54 54
43 34 59 42 68 33 14 -14 28 -16 28 -4 0 4 -12 21 -26 37 -14 17 -40 49 -57
73 -29 40 -47 53 -47 33z"/>
<path d="M1410 6968 c0 -5 43 -77 96 -160 122 -192 126 -202 107 -250 -9 -23
-22 -38 -32 -38 -9 1 -81 33 -161 73 -145 72 -145 72 -142 105 1 17 0 32 -4
32 -9 0 -95 -192 -89 -199 4 -3 11 2 16 12 14 24 41 21 102 -9 29 -15 53 -27
54 -29 2 -1 -9 -29 -23 -63 l-27 -61 -70 35 c-66 34 -69 37 -63 65 11 55 -10
29 -52 -63 -47 -104 -51 -122 -22 -90 12 12 24 22 28 22 4 -1 72 -33 152 -73
140 -70 145 -73 150 -107 5 -34 7 -33 53 64 48 100 54 129 18 85 l-19 -24 -71
35 c-39 18 -71 37 -71 41 0 3 11 32 25 63 l25 57 73 -38 c65 -34 72 -41 69
-65 -1 -16 1 -28 5 -28 8 1 80 153 85 180 2 8 6 17 9 20 17 15 77 120 70 124
-4 3 -15 -4 -24 -14 -20 -24 -43 -17 -62 21 -14 27 -13 31 20 84 37 57 50 63
103 48 20 -5 23 -10 18 -35 -8 -41 3 -30 57 55 45 71 63 117 35 89 -7 -7 -27
-12 -45 -12 -28 0 -318 42 -375 54 -10 2 -18 0 -18 -6z m192 -124 l38 -6 -25
-42 c-30 -49 -38 -53 -53 -24 -6 13 -21 38 -33 57 l-22 33 29 -5 c16 -4 46 -9
66 -13z"/>
<path d="M8309 6705 c0 -5 -1 -19 0 -30 1 -11 -2 -25 -7 -32 -8 -12 -276 -143
-292 -143 -5 0 -18 10 -30 22 -28 30 -26 8 6 -63 29 -64 43 -76 36 -31 -2 18
3 33 15 44 17 15 233 120 233 114 0 -2 -34 -75 -75 -162 -42 -88 -82 -172 -90
-189 -8 -17 -10 -31 -4 -33 5 -2 80 30 167 72 86 42 163 76 171 76 8 0 20 -8
27 -17 25 -35 24 -5 -3 55 -29 69 -42 78 -39 30 1 -32 -3 -35 -92 -81 l-93
-48 39 78 c22 43 53 107 70 143 l31 66 -34 69 c-19 39 -35 66 -36 60z"/>
<path d="M1045 6235 c-27 -66 -35 -90 -35 -108 0 -21 0 -21 16 1 20 29 44 28
140 -7 72 -27 77 -30 54 -39 -14 -5 -77 -29 -142 -52 -115 -42 -117 -43 -132
-84 -9 -22 -19 -57 -22 -76 l-7 -35 22 23 c28 28 40 28 142 -7 190 -65 199
-70 199 -102 0 -16 4 -29 8 -29 7 0 35 72 50 128 6 21 -16 13 -23 -8 -4 -13
-15 -20 -32 -20 -30 0 -243 71 -243 81 0 4 33 19 73 33 162 60 307 119 307
125 0 3 -71 30 -159 59 -87 29 -168 60 -179 68 -11 8 -22 27 -24 42 -4 24 -5
25 -13 7z"/>
<path d="M8453 6232 c-50 -19 -55 -32 -14 -32 16 0 37 -3 46 -6 20 -8 49 -64
38 -74 -9 -9 -296 -110 -312 -110 -5 0 -17 10 -25 22 -28 40 -26 13 5 -83 32
-94 56 -140 47 -87 -3 15 -2 31 1 37 4 6 78 35 164 65 l158 55 9 -25 c15 -40
12 -53 -20 -86 -17 -17 -29 -33 -26 -35 5 -5 106 26 106 32 0 24 -115 345
-123 344 -7 0 -31 -8 -54 -17z"/>
<path d="M881 5701 c-23 -99 -27 -141 -9 -104 6 12 17 24 24 27 7 3 69 -8 136
-25 211 -51 198 -46 198 -79 0 -59 17 -28 39 71 23 100 23 130 1 90 -15 -28
-38 -26 -205 17 -135 36 -140 38 -143 65 -6 49 -20 28 -41 -62z"/>
<path d="M8584 5625 c-4 -9 -3 -35 0 -58 l7 -42 -33 33 c-39 37 -53 40 -68 11
-16 -30 4 -49 51 -49 47 0 50 -13 9 -30 -41 -17 -57 -47 -37 -68 22 -22 45 -8
67 40 13 30 19 36 19 22 3 -70 47 -109 71 -63 10 17 6 25 -26 54 l-38 35 55
-3 c48 -2 54 0 57 19 2 11 -4 26 -12 33 -13 11 -22 9 -52 -8 -43 -26 -52 -22
-29 13 22 34 16 70 -13 74 -13 2 -25 -3 -28 -13z"/>
<path d="M863 5313 c-4 -9 3 -33 16 -55 23 -41 19 -47 -17 -22 -30 21 -66 15
-70 -12 -5 -32 19 -46 57 -33 43 15 52 3 17 -24 -33 -26 -34 -69 -2 -75 26 -5
46 24 46 67 l1 36 20 -38 c24 -45 45 -56 66 -34 22 22 10 44 -34 63 l-38 16
45 12 c47 12 62 34 40 61 -18 21 -25 19 -60 -17 l-32 -33 5 35 c2 19 0 43 -5
53 -11 22 -47 22 -55 0z"/>
<path d="M8847 5104 c-4 -4 -7 -15 -7 -25 0 -23 -12 -26 -167 -39 -178 -15
-193 -14 -193 10 0 11 -4 20 -10 20 -13 0 -12 -15 5 -135 8 -55 15 -131 15
-170 0 -38 3 -100 7 -137 l6 -68 53 0 c30 0 54 5 54 10 0 6 -9 10 -19 10 -26
0 -58 30 -65 61 l-6 26 83 6 c45 4 124 7 175 7 91 0 93 0 105 -27 11 -26 12
-24 15 37 2 36 0 81 -4 100 -6 32 -7 33 -15 12 -5 -12 -14 -24 -21 -27 -7 -2
-86 -6 -176 -7 l-163 -3 3 35 c3 30 9 38 43 55 l40 20 -52 3 c-48 3 -53 5 -53
27 0 30 3 31 189 46 l154 12 20 -24 20 -24 -8 79 c-8 86 -17 121 -28 110z"/>
<path d="M1070 4610 c0 -5 11 -10 24 -10 27 0 66 -42 66 -70 0 -16 -14 -19
-102 -25 -57 -3 -137 -5 -178 -3 -69 3 -75 5 -78 26 -5 34 -22 26 -22 -12 0
-62 13 -156 21 -156 5 0 9 9 9 20 0 11 1 21 3 22 1 1 80 4 175 7 l173 6 -3
-35 c-2 -28 -9 -38 -36 -52 -52 -25 -50 -28 16 -28 l61 0 -5 128 c-3 70 -7
142 -10 160 -5 32 -6 32 -59 32 -30 0 -55 -4 -55 -10z"/>
<path d="M8505 4520 c-2 -3 -8 -72 -14 -155 -14 -188 -45 -400 -77 -529 -25
-99 -27 -139 -5 -98 15 28 32 28 194 -4 172 -33 167 -31 167 -60 0 -13 4 -24
8 -24 11 0 51 172 44 185 -3 5 -8 2 -10 -5 -11 -37 -28 -37 -179 -8 -184 35
-183 35 -183 61 0 20 4 22 52 19 l53 -4 -35 24 c-28 19 -36 31 -38 62 l-3 38
33 -5 c18 -3 92 -13 163 -23 135 -17 155 -24 155 -55 0 -11 4 -19 8 -19 8 0
32 132 32 174 0 16 -2 16 -19 -5 l-18 -23 -139 18 c-197 25 -194 25 -194 52 0
25 43 64 71 64 36 0 19 17 -22 23 -48 6 -54 11 -45 33 5 14 19 15 119 9 225
-15 242 -17 245 -42 8 -55 20 -14 26 90 4 61 9 131 12 153 l6 41 -67 13 c-77
14 -92 9 -40 -15 20 -10 42 -30 50 -46 17 -31 20 -105 6 -114 -5 -3 -42 -2
-81 1 -65 6 -71 9 -68 28 2 16 14 23 46 30 23 6 42 13 42 16 0 8 -102 20 -167
20 -27 0 -42 -4 -38 -10 3 -5 14 -10 24 -10 20 0 61 -40 61 -59 0 -9 -8 -11
-22 -7 -13 3 -49 6 -82 6 l-59 0 7 47 c7 56 27 80 73 89 19 4 31 10 26 14 -9
9 -113 18 -118 10z"/>
<path d="M967 4279 c-57 -13 -93 -35 -124 -76 -24 -31 -28 -46 -28 -102 0 -51
5 -74 23 -103 80 -130 308 -122 378 13 32 64 6 182 -51 227 -28 22 -115 53
-144 51 -9 -1 -33 -5 -54 -10z m200 -115 c42 -31 44 -83 4 -117 -56 -47 -238
-61 -297 -23 -44 30 -43 93 3 123 67 44 240 54 290 17z"/>
<path d="M1101 3872 c-16 -16 -37 -57 -51 -97 -26 -81 -39 -97 -74 -97 -82 0
-81 113 1 163 19 12 32 23 29 26 -7 7 -146 -19 -146 -28 0 -4 7 -9 15 -12 10
-5 14 -21 13 -60 -3 -95 46 -147 138 -147 62 0 95 34 123 127 12 38 29 77 39
86 64 58 116 -50 54 -112 -15 -15 -34 -30 -42 -33 -8 -3 -13 -8 -10 -11 3 -3
34 0 68 8 62 13 91 25 59 25 -9 0 -17 3 -17 8 -1 4 -2 33 -3 65 -2 52 -6 62
-35 88 -27 24 -41 29 -83 29 -42 0 -55 -5 -78 -28z"/>
<path d="M8379 3676 c9 -11 6 -20 -13 -43 -46 -55 -46 -112 -1 -157 56 -56
125 -42 219 43 65 59 105 67 131 27 32 -49 -21 -109 -106 -121 -59 -8 -54 -17
16 -34 28 -7 58 -14 68 -17 16 -5 18 -2 12 16 -5 15 1 33 20 61 47 67 35 141
-28 179 -62 38 -108 25 -197 -54 -66 -59 -105 -71 -130 -40 -31 36 39 114 101
114 46 0 34 15 -22 28 -69 16 -85 16 -70 -2z"/>
<path d="M1305 3643 c0 -27 -3 -29 -145 -70 -170 -49 -193 -52 -208 -20 -23
47 -11 -17 17 -92 26 -73 53 -108 44 -58 -6 30 2 35 87 57 l68 18 17 -55 c10
-30 16 -56 14 -58 -8 -7 -114 -35 -135 -35 -13 0 -27 8 -33 17 -5 10 -12 15
-15 12 -8 -8 56 -179 67 -179 5 0 6 8 2 19 -3 10 1 23 9 30 17 14 280 90 312
91 24 0 53 -45 38 -59 -10 -10 -298 -121 -313 -121 -6 0 -14 8 -20 17 -5 10
-12 15 -16 11 -3 -3 13 -44 37 -89 37 -74 43 -81 46 -56 3 23 13 32 59 52 54
24 83 31 83 19 0 -3 -18 -37 -40 -75 -39 -65 -63 -84 -73 -56 -2 6 -7 9 -11 6
-11 -10 61 -140 167 -301 l96 -148 61 22 c33 12 60 26 60 31 0 4 -9 5 -21 2
-37 -12 -88 5 -124 41 -51 50 -46 68 25 104 34 17 65 28 70 25 18 -11 10 -46
-17 -71 -14 -13 -24 -27 -21 -30 7 -6 188 83 188 92 0 3 -18 3 -40 -1 -30 -5
-47 -2 -67 10 l-27 18 65 33 c35 18 67 33 71 34 13 1 48 -69 48 -97 0 -17 -9
-38 -20 -48 -35 -32 -21 -36 33 -9 28 15 54 28 56 30 2 2 -37 66 -87 141 -50
76 -101 159 -113 186 -22 46 -46 66 -34 28 3 -11 1 -22 -5 -26 -10 -6 -200 72
-200 84 0 7 110 51 129 51 8 0 20 -8 27 -17 28 -38 12 11 -35 105 -26 53 -54
115 -61 137 -7 22 -17 49 -23 60 -10 19 -12 18 -17 -10 -4 -25 -13 -33 -55
-47 -81 -27 -89 -25 -109 32 -10 28 -17 52 -15 54 11 9 106 36 125 36 14 0 28
-9 35 -22 27 -50 19 6 -12 87 -33 89 -45 104 -44 58z m230 -642 c132 -68 131
-73 -44 -161 -78 -38 -146 -70 -153 -70 -19 0 -48 32 -48 53 0 11 27 69 60
128 47 83 65 106 78 102 9 -3 58 -26 107 -52z"/>
<path d="M8313 3391 c-40 -25 -52 -43 -102 -159 -44 -100 -51 -131 -22 -93
l19 24 113 -38 c218 -72 221 -74 215 -101 -14 -53 13 -19 46 59 34 80 40 110
14 74 -17 -22 -29 -22 -105 4 -40 14 -59 25 -53 31 5 5 55 20 111 32 56 13
103 25 105 27 10 12 46 103 41 107 -2 3 -11 -1 -20 -8 -14 -12 -152 -49 -185
-50 -9 0 -20 14 -25 32 -19 63 -97 93 -152 59z m76 -92 c31 -19 33 -23 28 -60
-3 -23 -7 -42 -9 -44 -7 -8 -158 51 -158 61 0 6 9 23 21 38 25 32 70 35 118 5z"/>
<path d="M8110 3031 c-24 -42 -59 -105 -78 -141 -19 -36 -46 -80 -60 -98 -24
-31 -24 -58 0 -34 26 26 49 11 113 -75 36 -47 64 -88 62 -90 -5 -4 -246 33
-253 40 -3 3 -1 15 6 26 23 43 -8 19 -46 -36 -21 -31 -48 -66 -60 -77 -12 -12
-56 -62 -98 -113 -42 -51 -81 -95 -87 -98 -18 -12 -9 -26 10 -15 32 16 42 12
116 -47 l70 -55 -150 5 -150 5 -50 -47 c-27 -25 -70 -63 -95 -84 l-45 -38 37
7 c37 6 40 4 133 -88 80 -79 95 -98 95 -125 0 -23 -8 -38 -31 -57 -49 -41 -68
-35 -170 59 -114 106 -126 121 -110 146 6 11 8 19 5 19 -9 0 -128 -96 -145
-117 -15 -18 -16 -18 35 3 10 4 47 -25 103 -78 111 -106 128 -118 176 -118 83
0 156 60 164 134 l6 46 -102 103 c-55 57 -101 107 -101 111 0 14 33 35 54 36
18 0 62 -31 194 -135 57 -44 63 -52 58 -77 -3 -15 -2 -28 2 -28 14 0 96 89 89
97 -4 3 -13 1 -19 -5 -26 -26 -64 -8 -182 88 -67 54 -72 59 -51 55 45 -9 405
-14 405 -6 0 4 -15 19 -34 32 -44 31 -171 129 -215 166 -28 24 -33 34 -28 55
14 53 39 46 183 -49 128 -84 134 -89 129 -116 -2 -16 -1 -27 5 -25 14 5 120
141 115 147 -3 2 -11 -1 -17 -7 -7 -7 -19 -12 -27 -12 -20 0 -274 171 -279
187 -2 7 8 18 23 25 21 9 64 7 231 -16 113 -15 207 -26 210 -24 2 3 -48 73
-111 158 -115 152 -137 199 -101 213 8 3 83 -24 166 -61 146 -65 151 -68 147
-95 -2 -15 1 -26 6 -24 14 4 161 271 151 274 -5 2 -29 16 -54 33 -51 34 -61
32 -31 -6 12 -15 21 -41 21 -61 0 -38 -26 -103 -41 -103 -10 0 -131 49 -138
56 -2 2 2 10 9 19 8 10 31 15 64 16 l51 1 -90 43 c-107 52 -132 56 -87 16 30
-28 42 -64 25 -74 -5 -3 -38 9 -75 25 -62 28 -67 32 -56 52 26 52 60 76 107
76 51 0 47 9 -20 37 l-45 20 -44 -76z"/>
<path d="M1805 2671 c10 -34 -6 -50 -127 -126 -117 -74 -152 -87 -176 -63 -6
6 -14 10 -16 7 -6 -6 75 -109 86 -109 5 0 4 9 -2 20 -11 20 1 60 18 60 4 0 50
27 101 60 51 34 95 60 96 58 1 -2 -11 -46 -27 -98 -47 -154 -65 -214 -73 -237
-3 -13 -2 -23 3 -23 6 0 75 40 154 90 78 49 151 90 160 90 32 0 30 -22 -3 -50
l-34 -29 50 6 c42 4 55 1 78 -17 l27 -22 -127 -99 c-122 -94 -154 -111 -168
-89 -3 6 -11 10 -18 10 -6 0 22 -34 63 -75 41 -41 76 -72 78 -70 3 3 -1 11 -8
19 -6 9 -10 20 -8 26 2 6 59 55 128 110 l125 99 23 -25 c26 -29 28 -51 7 -81
-24 -34 -4 -34 42 2 l42 32 -125 124 c-69 68 -141 145 -161 171 -35 45 -64 57
-43 18 5 -10 10 -21 10 -24 0 -11 -155 -106 -158 -97 -1 4 13 58 33 120 19 62
35 117 35 122 0 14 -73 109 -83 109 -5 0 -6 -8 -2 -19z"/>
<path d="M2348 2004 c-55 -29 -61 -78 -23 -180 30 -79 31 -93 8 -110 -67 -50
-151 53 -110 135 24 47 7 45 -45 -6 -53 -52 -58 -63 -28 -63 11 0 27 -12 37
-27 56 -89 158 -116 227 -62 42 33 44 79 6 171 -35 84 -34 109 4 116 60 12
108 -50 87 -111 -18 -51 -13 -53 34 -7 48 47 57 65 26 55 -13 -4 -21 0 -25 12
-10 28 -53 72 -81 83 -37 14 -85 12 -117 -6z"/>
<path d="M2596 1882 c-3 -6 1 -12 9 -16 26 -10 16 -39 -33 -97 -26 -31 -67
-82 -92 -113 -41 -51 -48 -56 -77 -52 -18 3 -33 3 -33 0 0 -10 172 -116 178
-109 4 3 -1 11 -11 16 -27 16 -20 40 27 94 l43 49 48 -29 c27 -17 50 -34 52
-40 1 -5 -19 -34 -45 -63 -44 -50 -49 -53 -74 -43 -53 20 -28 -4 60 -59 48
-30 89 -57 92 -61 8 -10 108 -59 121 -59 7 0 2 11 -10 24 l-22 24 27 21 c34
26 32 26 99 -6 45 -22 55 -32 55 -53 0 -36 -15 -54 -39 -47 -51 13 -23 -13 56
-52 84 -41 108 -46 83 -16 -10 12 -9 46 4 177 9 90 19 173 22 186 2 12 1 22
-3 22 -5 0 -80 -47 -168 -105 -169 -110 -205 -124 -238 -87 -10 10 -17 23 -17
28 0 5 22 34 48 66 26 31 69 84 96 117 49 61 71 72 94 49 9 -9 12 -9 12 0 0
12 -161 123 -169 116 -2 -2 4 -13 14 -24 17 -19 17 -21 -25 -75 -23 -30 -44
-55 -46 -55 -11 0 -103 66 -101 72 1 5 18 28 37 53 31 41 39 45 68 41 56 -8
45 2 -115 102 -12 8 -24 9 -27 4z m426 -454 c-2 -29 -6 -55 -9 -57 -2 -3 -24
5 -50 18 l-46 22 49 34 c27 19 52 34 55 34 3 1 4 -23 1 -51z"/>
<path d="M6890 1740 c0 -5 16 -80 36 -167 22 -98 34 -173 31 -196 l-5 -38 31
19 c89 53 96 61 45 58 -27 -1 -34 4 -42 27 -11 31 1 46 72 84 31 17 33 17 67
-1 39 -21 43 -33 18 -52 -10 -8 -13 -14 -6 -14 16 0 163 93 163 103 0 4 -10 5
-22 2 -16 -4 -75 22 -201 90 -98 52 -180 95 -183 95 -2 0 -4 -4 -4 -10z m160
-181 c0 -6 -65 -49 -75 -49 -6 0 -25 72 -25 93 0 16 5 15 50 -9 28 -15 50 -31
50 -35z"/>
<path d="M6648 1604 c-92 -46 -108 -60 -59 -49 27 6 32 2 65 -50 20 -30 36
-57 36 -60 0 -6 -96 -55 -108 -55 -11 0 -72 97 -72 115 0 7 7 15 15 19 8 3 15
10 15 16 0 5 -48 -14 -107 -44 -60 -29 -126 -59 -148 -66 l-40 -14 33 -7 c18
-4 35 -8 36 -10 6 -7 76 -148 76 -154 0 -3 -58 24 -130 60 l-130 65 -112 -34
c-62 -18 -137 -39 -165 -47 -58 -14 -70 -29 -24 -29 28 0 30 -4 75 -126 62
-169 62 -171 37 -179 -12 -3 -21 -11 -21 -17 0 -5 8 -7 17 -4 9 4 54 16 100
28 46 11 83 25 83 30 0 6 -9 8 -20 5 -11 -3 -26 1 -34 8 -14 14 -106 257 -106
280 0 22 70 35 95 17 12 -8 125 -244 125 -260 0 -6 -10 -18 -22 -26 -35 -25
-15 -27 48 -6 75 26 90 40 42 40 -36 0 -36 0 -87 106 -28 59 -50 108 -48 111
2 2 84 -35 182 -82 98 -47 180 -83 183 -80 6 6 -27 83 -84 197 -24 48 -44 96
-44 106 0 29 37 59 58 46 9 -6 52 -68 96 -139 l80 -128 -22 -18 c-45 -36 -5
-26 88 22 80 42 90 49 60 47 -32 -3 -38 1 -72 52 -21 30 -38 58 -38 62 0 8 93
58 108 58 11 0 72 -103 72 -122 0 -10 -8 -22 -17 -27 -13 -7 -14 -10 -4 -11
16 0 181 79 181 87 0 3 -11 3 -24 1 -14 -3 -29 -2 -34 1 -17 11 -162 249 -162
265 0 9 7 19 15 22 15 6 21 24 8 23 -5 0 -47 -20 -95 -45z"/>
<path d="M3299 1471 l24 -18 -65 -139 c-63 -136 -66 -139 -96 -139 -18 0 -32
-3 -32 -6 0 -9 192 -81 198 -74 3 2 -5 13 -18 23 l-23 18 28 62 c15 34 31 62
36 62 9 0 112 -39 117 -45 2 -2 -10 -30 -27 -63 -29 -57 -33 -61 -68 -64 -36
-3 -32 -5 62 -41 112 -42 131 -45 95 -18 l-24 19 58 129 c68 148 71 153 100
153 52 -1 52 -9 2 -164 -26 -80 -52 -147 -59 -147 -7 -1 -20 -1 -29 0 -10 1
-18 -2 -18 -6 0 -5 38 -19 85 -31 46 -12 91 -25 100 -28 8 -4 15 -1 15 4 0 6
-9 14 -21 17 -18 6 -20 12 -15 41 10 49 35 106 45 100 5 -3 23 -43 41 -88 18
-46 38 -88 44 -94 12 -13 110 -37 236 -59 109 -19 110 -19 78 8 l-27 22 24
110 c40 180 42 185 73 185 16 0 36 -6 44 -12 15 -12 16 -24 2 -143 -17 -150
-25 -175 -55 -175 -12 0 -19 -3 -15 -7 4 -5 56 -13 114 -19 121 -13 183 -5
234 29 71 48 91 158 41 235 -38 59 -93 79 -261 98 -75 8 -168 21 -207 28 -38
8 -74 11 -78 6 -5 -4 3 -10 17 -14 14 -3 26 -13 26 -20 0 -24 -49 -249 -60
-273 -12 -28 -60 -32 -81 -7 -10 13 -69 147 -69 159 0 1 12 6 26 9 68 17 98
69 74 127 -17 40 -59 60 -205 98 -66 18 -156 45 -199 62 -83 31 -104 32 -66 1
l22 -18 -27 -55 c-15 -29 -29 -56 -31 -58 -2 -2 -30 6 -63 19 l-59 22 19 46
c29 66 46 83 78 75 49 -11 11 11 -75 44 -97 37 -120 41 -85 14z m566 -203 c46
-21 46 -94 0 -124 -17 -11 -35 -14 -64 -9 l-39 6 19 57 c11 31 21 63 24 70 6
15 27 15 60 0z m621 -132 c32 -32 34 -38 34 -97 0 -73 -25 -137 -61 -163 -30
-20 -78 -21 -86 -1 -3 9 0 59 6 113 23 191 21 182 48 182 15 0 39 -14 59 -34z"/>
<path d="M5575 1234 c-38 -7 -81 -17 -95 -21 -24 -6 -23 -7 9 -12 l35 -6 33
-130 c39 -156 41 -185 13 -185 -11 0 -20 -4 -20 -10 0 -13 7 -12 112 8 92 18
122 32 70 32 -35 0 -28 -15 -76 177 -31 122 -32 133 -6 140 22 6 28 24 8 22
-7 -1 -44 -7 -83 -15z"/>
<path d="M5416 1203 c-4 -5 -51 -8 -104 -8 -76 0 -105 -4 -132 -19 -77 -41
-112 -93 -112 -166 0 -158 186 -235 376 -156 l38 16 -6 54 c-7 49 -5 55 13 61
38 12 22 23 -26 18 -155 -16 -168 -21 -107 -38 12 -4 29 -93 20 -102 -3 -3
-25 -8 -49 -10 -88 -10 -136 41 -145 153 -6 78 2 109 35 140 49 45 167 23 202
-38 24 -41 35 -34 27 18 -3 26 -6 55 -6 65 0 20 -11 25 -24 12z"/>
<path d="M4771 1011 c-52 -103 -90 -166 -108 -179 l-28 -21 75 0 c65 1 71 3
48 12 -30 12 -33 22 -18 61 9 24 14 26 78 26 l68 0 17 -36 c20 -40 15 -54 -16
-54 -18 0 -19 -2 -7 -10 16 -10 190 -14 190 -4 0 3 -10 14 -22 24 -13 10 -59
90 -103 179 -44 88 -83 161 -87 161 -5 0 -44 -71 -87 -159z m74 -21 c14 -27
25 -52 25 -55 0 -3 -25 -5 -55 -5 l-55 0 27 55 c15 30 28 55 30 55 1 0 14 -22
28 -50z"/>
</g>
</svg>
